HIERARCHY
ROOT root
{
	OFFSET 0.000000 0.000000 0.000000
	CHANNELS 6 Xposition Yposition Zposition Zrotation Yrotation Xrotation
	JOINT lhip
	{
		OFFSET 0.058581 -0.082280 -0.017664
		CHANNELS 3 Zrotation Yrotation Xrotation
		JOINT lknee
		{
			OFFSET 0.043451 -0.386469 0.008037
			CHANNELS 3 Zrotation Yrotation Xrotation
			JOINT lankle
			{
				OFFSET -0.014790 -0.426874 -0.037428
				CHANNELS 3 Zrotation Yrotation Xrotation
				JOINT ltoe
				{
					OFFSET 0.041054 -0.060286 0.122042
					CHANNELS 3 Zrotation Yrotation Xrotation
					End Site
					{
						OFFSET 0.000000 0.000000 0.000000
					}
				}
			}
		}
	}
	JOINT rhip
	{
		OFFSET -0.060310 -0.090513 -0.013543
		CHANNELS 3 Zrotation Yrotation Xrotation
		JOINT rknee
		{
			OFFSET -0.043257 -0.383688 -0.004843
			CHANNELS 3 Zrotation Yrotation Xrotation
			JOINT rankle
			{
				OFFSET 0.019056 -0.420046 -0.034562
				CHANNELS 3 Zrotation Yrotation Xrotation
				JOINT rtoe
				{
					OFFSET -0.034840 -0.062106 0.130323
					CHANNELS 3 Zrotation Yrotation Xrotation
					End Site
					{
						OFFSET 0.000000 0.000000 0.000000
					}
				}
			}
		}
	}
	JOINT lowerback
	{
		OFFSET 0.004439 0.124404 -0.038385
		CHANNELS 3 Zrotation Yrotation Xrotation
		JOINT upperback
		{
			OFFSET 0.004488 0.137956 0.026820
			CHANNELS 3 Zrotation Yrotation Xrotation
			JOINT chest
			{
				OFFSET -0.002265 0.056032 0.002855
				CHANNELS 3 Zrotation Yrotation Xrotation
				JOINT lowerneck
				{
					OFFSET -0.013390 0.211636 -0.033468
					CHANNELS 3 Zrotation Yrotation Xrotation
					JOINT upperneck
					{
						OFFSET 0.010113 0.088937 0.050410
						CHANNELS 3 Zrotation Yrotation Xrotation
						End Site
						{
							OFFSET 0.000000 0.000000 0.000000
						}
					}
				}
				JOINT lclavicle
				{
					OFFSET 0.071702 0.114000 -0.018898
					CHANNELS 3 Zrotation Yrotation Xrotation
					JOINT lshoulder
					{
						OFFSET 0.122921 0.045205 -0.019046
						CHANNELS 3 Zrotation Yrotation Xrotation
						JOINT lelbow
						{
							OFFSET 0.255332 -0.015649 -0.022946
							CHANNELS 3 Zrotation Yrotation Xrotation
							JOINT lwrist
							{
								OFFSET 0.265709 0.012698 -0.007375
								CHANNELS 3 Zrotation Yrotation Xrotation
								End Site
								{
									OFFSET 0.000000 0.000000 0.000000
								}
							}
						}
					}
				}
				JOINT rclavicle
				{
					OFFSET -0.082954 0.112472 -0.023707
					CHANNELS 3 Zrotation Yrotation Xrotation
					JOINT rshoulder
					{
						OFFSET -0.113228 0.046853 -0.008472
						CHANNELS 3 Zrotation Yrotation Xrotation
						JOINT relbow
						{
							OFFSET -0.260127 -0.014369 -0.031269
							CHANNELS 3 Zrotation Yrotation Xrotation
							JOINT rwrist
							{
								OFFSET -0.269108 0.006794 -0.006027
								CHANNELS 3 Zrotation Yrotation Xrotation
								End Site
								{
									OFFSET 0.000000 0.000000 0.000000
								}
							}
						}
					}
				}
			}
		}
	}
}
MOTION
Frames: 16
Frame Time: 0.033333
0.011248 0.231590 1.008674 87.629287 -0.172531 90.027845 5.596451 3.092480 -2.260584 -3.606192 -4.911640 3.660028 -0.013395 8.113410 -5.031450 0.000000 -0.000000 0.000000 -6.878297 -3.644242 -5.250123 1.430851 -0.762739 6.034813 2.810067 -3.869994 -2.585415 0.000000 -0.000000 0.000000 0.642869 1.702827 5.697302 0.176897 -2.937737 9.991583 -2.201580 -0.187805 -6.901276 -0.236706 -11.974370 16.438993 3.537884 -8.663559 10.894019 -29.905594 4.482927 2.196717 -50.601809 -3.747180 13.454717 15.519968 -32.975198 -3.935374 0.099572 -11.887813 2.055783 26.287293 4.110733 3.133381 51.857649 7.966079 16.921162 -2.654486 25.498004 6.988124 1.341427 8.117373 9.162253 
0.012013 0.230933 1.008505 87.826693 -0.031693 90.230868 5.819357 3.395824 -2.326892 -3.669038 -5.456649 3.360603 -0.421412 8.225609 -4.806445 0.000000 -0.000000 0.000000 -6.663064 -3.594373 -4.971310 1.405539 -0.803749 5.231986 3.068412 -4.221398 -2.315952 0.000000 -0.000000 0.000000 1.012626 1.345792 6.254461 -0.057358 -2.878683 8.978254 -1.993969 -0.065554 -6.131871 -0.521885 -10.909927 15.369138 3.858906 -7.220474 8.912170 -29.878629 4.328085 2.396525 -50.871819 -3.406014 13.348755 15.247125 -32.900339 -2.725018 -0.207486 -11.781658 2.102763 25.789834 4.139871 2.998341 52.361999 7.441515 16.570062 -2.722998 24.889992 6.832969 1.899788 8.247145 7.948481 
0.012776 0.230576 1.008611 87.901418 -0.041326 90.603245 5.802133 3.498866 -2.516440 -3.627284 -5.459889 3.015746 -0.571491 8.166733 -4.616119 0.000000 -0.000000 0.000000 -6.702955 -3.696054 -5.034469 1.546003 -0.912149 4.702261 3.017833 -4.231842 -2.158574 0.000000 -0.000000 0.000000 1.188751 1.303507 6.373345 -0.108647 -2.842587 8.765058 -1.951505 -0.054549 -6.214130 -0.662233 -10.013895 14.419211 3.723753 -6.340762 7.528533 -29.988556 4.204872 2.383321 -51.052365 -3.054597 13.320808 15.072262 -32.922474 -2.770501 -0.201061 -11.990617 1.798609 25.681767 4.023025 3.068674 52.433510 7.012161 16.350621 -2.991004 24.658012 6.710320 1.849573 8.064116 7.963229 
0.014304 0.229978 1.008511 88.020589 -0.013462 90.868579 5.863986 3.595465 -2.525916 -3.584142 -5.554076 2.640348 -0.694549 8.116687 -4.476306 0.000000 -0.000000 0.000000 -6.674198 -3.768014 -4.803109 1.621044 -1.051271 3.991752 3.057529 -4.266772 -2.010942 0.000000 -0.000000 0.000000 1.367336 1.232498 6.747772 -0.254764 -2.765496 8.251568 -1.900046 0.007165 -6.407195 -0.911558 -8.756762 13.375754 3.557869 -5.000937 6.509036 -30.040405 4.027707 2.495005 -51.150461 -2.664056 13.411714 14.714853 -33.305996 -2.043081 -0.328983 -12.038236 1.737776 25.633972 3.904989 3.299560 52.537875 6.483832 16.174793 -3.157805 24.335176 6.764656 2.007398 7.916692 7.753071 
0.015272 0.229859 1.008285 88.089659 -0.043683 91.039766 5.828533 3.630298 -2.488979 -3.537211 -5.654646 2.320257 -0.720553 8.111762 -4.395620 0.000000 -0.000000 0.000000 -6.729945 -3.763902 -4.788491 1.686966 -1.126670 3.781553 3.080603 -4.269184 -2.028322 0.000000 -0.000000 0.000000 1.403382 1.210240 6.713471 -0.353633 -2.748990 8.218088 -1.897758 0.089306 -6.594518 -1.046863 -8.296165 13.054454 3.382542 -4.402910 6.219702 -30.072979 3.864149 2.587982 -51.307395 -2.642642 13.480775 14.618369 -33.406351 -1.797200 -0.239792 -12.077443 1.663799 25.603181 3.958789 3.546176 52.622434 6.338110 16.087000 -3.258877 24.068938 6.754204 1.902295 7.925915 7.766429 
0.017183 0.229223 1.007945 88.176291 -0.005810 91.138769 5.962960 3.539333 -2.296339 -3.582083 -5.637685 1.973997 -0.760503 8.177685 -4.341264 0.000000 -0.000000 0.000000 -6.696934 -3.815120 -4.495885 1.774900 -1.173300 3.304517 3.153407 -4.285592 -1.927301 0.000000 -0.000000 0.000000 1.470044 1.233593 6.679055 -0.502952 -2.699850 7.874354 -1.938494 0.130505 -6.707891 -1.205262 -7.644970 13.086191 3.271349 -3.763233 6.683535 -30.135828 3.725025 2.821908 -51.314550 -2.706297 13.599701 14.414675 -33.749017 -1.313155 -0.043862 -12.096087 1.449457 25.551845 3.930346 3.870182 52.813967 6.242035 16.160813 -3.111327 23.660939 6.885967 2.057878 7.839975 7.201994 
0.019451 0.228704 1.007657 88.220061 0.005896 91.187140 5.997379 3.361740 -2.063112 -3.519649 -5.584643 1.711175 -0.754797 8.249931 -4.302868 0.000000 -0.000000 0.000000 -6.676629 -3.853493 -4.301620 1.829327 -1.262539 3.129178 3.142809 -4.313352 -1.907480 0.000000 -0.000000 0.000000 1.395231 1.396254 6.370223 -0.545522 -2.702354 7.875821 -2.033318 0.138227 -6.958524 -1.233879 -7.284043 13.553036 3.155397 -3.474293 7.665497 -30.152247 3.709753 2.839786 -51.260666 -2.938512 13.840437 13.966092 -33.986731 -1.081579 0.058221 -12.193838 1.559050 25.669961 3.771737 3.985817 52.880889 6.312091 16.307514 -3.137871 23.368875 6.955628 2.268916 7.610243 7.614258 
0.021629 0.228117 1.007270 88.303319 0.035599 91.146634 6.081064 3.239970 -1.820753 -3.491248 -5.498078 1.606031 -0.733997 8.268699 -4.376796 0.000000 -0.000000 0.000000 -6.630601 -3.879666 -4.131799 1.842353 -1.310532 3.234028 3.168825 -4.297339 -2.057459 0.000000 -0.000000 0.000000 1.314265 1.527163 5.976047 -0.623939 -2.660536 7.926784 -2.153175 0.128525 -7.002022 -1.193208 -7.031151 14.280906 3.080900 -3.378666 8.523680 -30.084001 3.646940 2.760787 -51.265880 -3.316496 14.075417 13.492062 -34.243176 -0.804086 0.156214 -12.525012 1.491729 25.737926 3.696910 4.025401 53.004104 6.522703 16.395322 -3.040728 23.111409 6.762253 2.062660 7.903813 7.270090 
0.023490 0.227401 1.006765 88.400040 0.072176 91.084859 6.190940 3.170075 -1.713271 -3.498110 -5.469891 1.750654 -0.686432 8.230057 -4.549868 0.000000 -0.000000 0.000000 -6.560669 -3.959929 -4.055662 1.803749 -1.292690 3.519072 3.232573 -4.183616 -2.297487 0.000000 -0.000000 0.000000 1.136289 1.606979 5.644453 -0.686238 -2.668597 7.987829 -2.225764 0.118023 -6.998445 -1.034950 -6.786668 14.838242 3.063935 -3.220269 9.220525 -30.063029 3.663710 2.661544 -51.278963 -3.682239 14.073232 13.467473 -35.008261 -1.017540 0.239413 -12.586614 1.245473 25.734167 3.701925 4.060179 53.204638 6.799529 16.511409 -3.188705 23.329113 6.562709 1.987176 7.887704 7.158877 
0.025847 0.226323 1.006447 88.779653 0.136222 90.726809 6.386856 3.172349 -1.379472 -3.539643 -5.589741 2.058764 -0.706776 7.979342 -4.800583 0.000000 -0.000000 0.000000 -6.445718 -3.873990 -3.526770 1.772317 -1.525421 3.749095 3.173949 -4.222916 -2.722658 0.000000 -0.000000 0.000000 0.877255 1.477788 5.615842 -0.750414 -2.654193 8.041390 -2.195986 -0.000848 -6.860729 -0.788234 -6.539082 15.173237 3.093201 -3.148499 9.510764 -30.164334 3.436168 2.769009 -51.078856 -4.130210 13.849773 13.154470 -36.052793 -0.773258 0.404892 -12.743207 0.933901 25.653335 3.819692 4.023051 53.425590 7.075201 16.504762 -3.293325 24.300279 6.348620 2.094898 7.884263 6.468782 
0.027216 0.225416 1.006435 88.811841 0.190359 90.780275 6.492247 3.297551 -1.453530 -3.533671 -5.605644 2.282359 -0.669136 7.898692 -4.999471 0.000000 -0.000000 0.000000 -6.277796 -4.084677 -3.736140 1.689429 -1.442445 4.223489 3.173796 -4.153886 -2.909999 0.000000 -0.000000 0.000000 0.641931 1.607044 5.338601 -0.743428 -2.639956 8.141712 -2.251945 -0.040627 -6.925914 -0.603969 -6.365187 15.106209 3.150276 -3.096881 9.639617 -30.055672 3.187939 2.687156 -51.017663 -4.277532 14.075844 12.947520 -36.971110 -0.594580 0.574255 -12.701676 0.830343 25.680982 3.924154 3.990825 53.494405 7.190588 16.519427 -3.509515 25.348255 6.109936 1.970022 7.938860 6.220584 
0.029043 0.224820 1.006447 88.941702 0.186837 90.582470 6.510960 3.320894 -1.234588 -3.493634 -5.657483 2.483590 -0.652935 7.865060 -5.198608 0.000000 -0.000000 0.000000 -6.224306 -4.051670 -3.461537 1.619842 -1.493862 4.485704 3.224657 -4.193896 -3.313549 0.000000 -0.000000 0.000000 0.424814 1.579854 5.296732 -0.813190 -2.660334 8.153752 -2.246499 -0.072250 -6.862042 -0.417870 -6.112012 14.909494 3.115707 -2.976114 9.682307 -30.010287 2.806881 2.865693 -50.920256 -4.353754 14.018677 12.663730 -37.833059 0.013066 0.988939 -12.750865 0.848629 25.628021 4.070705 4.009389 53.567513 7.446934 16.452029 -3.661993 26.404258 6.243679 1.391108 8.025602 6.140774 
0.030391 0.224089 1.006637 89.047644 0.246685 90.562411 6.622092 3.296213 -1.333387 -3.505458 -5.641431 2.890909 -0.681129 7.769661 -5.332261 0.000000 -0.000000 0.000000 -6.090484 -4.105630 -3.419147 1.604503 -1.607982 4.687566 3.070549 -4.219139 -3.474768 0.000000 -0.000000 0.000000 0.242107 1.569725 5.283664 -0.860813 -2.733000 8.102407 -2.230134 -0.103911 -6.990655 -0.285733 -5.860762 14.653254 3.168190 -2.768436 9.621759 -30.001367 2.493395 3.019502 -50.814934 -4.334127 13.990891 12.628985 -38.551974 -0.112972 1.319403 -12.597405 0.555888 25.644609 4.367445 4.098939 53.599764 7.508591 16.415232 -3.756947 27.360669 6.032935 1.006190 8.128068 5.703173 
0.031624 0.223662 1.006854 89.073492 0.213138 90.596320 6.606482 3.447353 -1.469477 -3.522661 -5.641198 3.237642 -0.693957 7.625359 -5.545446 0.000000 -0.000000 0.000000 -6.111539 -4.125385 -3.386081 1.602638 -1.683939 4.739324 3.030890 -4.135713 -3.613559 0.000000 -0.000000 0.000000 0.081766 1.562917 5.251608 -0.960203 -2.681528 8.095588 -2.305441 -0.116354 -7.243447 -0.163719 -5.675901 14.558002 3.214226 -2.618654 9.573055 -30.041491 2.272871 3.053161 -50.700904 -4.282590 14.085585 12.765202 -39.121464 -0.039823 1.470231 -12.474091 0.856144 25.659131 4.533995 4.134619 53.665502 7.571354 16.413067 -3.842881 28.225545 5.864777 0.909002 8.296530 5.420464 
0.032979 0.223600 1.006775 89.019666 0.179424 90.750284 6.561669 3.758497 -1.533446 -3.488310 -5.709541 3.250952 -0.757316 7.457471 -5.604456 0.000000 -0.000000 0.000000 -6.198365 -4.067183 -3.438534 1.664238 -1.791945 4.704373 2.994105 -4.015262 -3.602245 0.000000 -0.000000 0.000000 -0.047783 1.560459 4.823099 -1.007135 -2.644147 8.400011 -2.409320 -0.052928 -7.423414 -0.158148 -5.491842 14.653883 3.304540 -2.668274 9.130678 -30.102003 2.070476 2.912207 -50.654762 -4.343893 14.181492 12.731261 -39.137403 -0.098209 1.412619 -12.664547 1.098793 25.713327 4.702561 4.127047 53.619947 7.769076 16.355453 -3.795899 28.813853 5.825817 0.812104 8.455581 5.551132 
0.034526 0.223072 1.006551 88.981839 0.285855 90.718456 6.737904 3.766739 -1.316612 -3.480146 -5.621373 3.156800 -0.746219 7.418570 -5.628840 0.000000 -0.000000 0.000000 -6.083931 -4.108192 -3.210543 1.759103 -1.864091 4.545631 2.911823 -4.003709 -3.595744 0.000000 -0.000000 0.000000 -0.111990 1.617265 4.707573 -1.045342 -2.607509 8.468180 -2.387987 -0.041412 -7.517044 -0.083993 -5.225274 14.648463 3.366446 -2.579142 8.683279 -30.153502 1.839276 2.887351 -50.637839 -4.311537 14.133840 12.709083 -39.023216 0.010084 1.234416 -12.599040 1.226762 25.648563 4.896920 4.160522 53.695925 7.795157 16.325058 -3.886152 29.450459 5.750266 0.769406 8.580838 5.264586 
